<?xml version="1.0" standalone="no"?>
<!DOCTYPE svg PUBLIC "-//W3C//DTD SVG 20010904//EN"
 "http://www.w3.org/TR/2001/REC-SVG-20010904/DTD/svg10.dtd">
<svg version="1.0" xmlns="http://www.w3.org/2000/svg"
 width="612.000000pt" height="420.000000pt" viewBox="0 0 612.000000 420.000000"
 preserveAspectRatio="xMidYMid meet">

<g transform="translate(0.000000,420.000000) scale(0.100000,-0.100000)"
fill="#000000" stroke="none">
<path d="M0 3055 l0 -1145 93 -1 c74 -1 85 -3 56 -10 -20 -4 -56 -7 -80 -5
-24 2 -50 1 -56 -1 -10 -4 -13 -211 -13 -949 l0 -944 3060 0 3060 0 0 958 0
958 -577 2 c-317 1 -581 6 -586 11 -4 4 -9 18 -10 30 -1 11 -8 21 -15 21 -9 0
-12 -6 -8 -16 5 -13 2 -15 -15 -11 -12 3 -30 2 -40 -4 -18 -9 -142 -12 -254
-5 -33 2 -70 4 -82 5 -13 1 -23 7 -23 16 0 8 -5 15 -11 15 -6 0 -9 -7 -5 -15
7 -20 -4 -19 -20 3 -12 16 -14 16 -29 -6 -15 -20 -43 -22 -30 -2 10 16 -27 20
-48 5 -12 -8 -32 -15 -44 -15 -15 0 -23 -6 -23 -17 0 -24 -33 -156 -54 -216
-20 -61 -21 -73 0 -56 11 9 18 9 22 2 4 -6 16 -12 26 -14 38 -8 26 -25 -19
-28 -26 -1 -45 2 -45 9 0 21 -17 9 -33 -25 -21 -45 -108 -177 -113 -172 -6 6
20 67 29 67 5 0 5 10 2 23 -4 15 -3 18 3 8 11 -15 27 2 17 19 -3 6 -1 10 4 10
19 0 12 39 -9 50 -10 6 -23 10 -27 9 -24 -4 -53 2 -53 11 0 6 12 16 28 23 15
6 35 22 45 34 10 13 24 23 31 23 6 0 11 12 11 28 -2 24 -6 27 -46 32 l-44 5
42 8 c55 9 65 27 16 29 -32 1 -30 2 17 8 38 5 45 7 22 8 -19 1 -31 6 -27 12 3
6 1 10 -5 10 -6 0 -8 5 -4 11 4 8 9 8 17 0 6 -6 16 -11 22 -11 5 0 3 5 -5 10
-10 6 -11 10 -2 10 6 0 12 7 12 15 0 8 6 15 13 15 8 0 7 4 -3 10 -13 9 -13 10
0 10 13 1 13 2 0 9 -18 11 -650 19 -666 9 -6 -4 -24 -5 -40 -3 -16 2 -103 4
-193 4 -132 1 -162 4 -158 14 3 8 -4 34 -16 58 l-22 44 -3 -48 c-3 -39 -6 -48
-20 -45 -14 3 -17 17 -19 86 -1 45 3 84 8 87 5 3 18 1 29 -5 14 -8 20 -8 20 0
0 6 5 8 11 4 8 -4 7 -9 -2 -15 -10 -6 -9 -15 7 -44 l19 -36 3 45 c3 38 7 46
23 46 17 0 19 -7 19 -86 0 -73 2 -85 14 -75 10 8 16 9 21 1 3 -5 11 -10 16
-10 6 0 3 7 -5 16 -34 34 -32 125 4 144 42 23 120 3 120 -30 0 -16 -25 -17
-43 -2 -14 12 -22 13 -42 4 -32 -15 -36 -62 -5 -62 11 0 20 7 20 15 0 21 66
21 74 0 4 -11 17 -15 46 -13 l40 2 0 48 c0 65 26 66 66 2 l29 -46 3 46 c2 32
7 46 18 46 10 0 14 -14 14 -55 0 -44 3 -53 15 -49 11 4 15 21 15 55 l0 49 90
0 90 0 1 -27 c0 -16 4 -37 8 -48 7 -16 10 -10 16 28 7 48 7 48 44 45 35 -3 36
-4 34 -40 -3 -51 4 -48 18 8 10 37 15 45 33 42 16 -2 20 -9 18 -28 -2 -14 -8
-29 -13 -34 -16 -18 -10 -34 16 -38 14 -3 25 -1 25 3 0 5 -4 9 -10 9 -16 0
-12 66 5 80 9 8 30 11 55 7 23 -3 38 -1 34 4 -7 12 8 11 41 -1 23 -9 25 -8 15
10 -5 10 -15 22 -20 25 -6 4 -28 31 -51 61 l-40 54 -79 0 c-52 0 -80 4 -80 11
0 7 14 10 35 7 26 -3 35 0 36 12 0 10 2 11 6 3 5 -15 63 -18 63 -4 0 6 -4 12
-9 15 -5 3 -7 21 -4 39 3 22 -4 48 -23 82 -22 42 -26 64 -28 140 -1 50 -7 99
-13 110 -20 39 -25 92 -8 99 8 3 15 14 15 24 0 11 7 25 15 32 21 17 19 44 -5
65 -21 19 -28 7 -8 -13 8 -8 8 -12 1 -12 -15 0 -34 25 -31 41 2 9 -4 13 -16
11 -11 -2 -15 1 -11 7 3 6 2 11 -4 11 -15 0 -26 -23 -13 -28 7 -2 12 -12 12
-22 0 -20 15 -35 23 -23 2 5 2 2 0 -5 -1 -7 2 -22 8 -33 13 -26 -4 -49 -31
-42 -10 3 -37 27 -61 55 -33 40 -39 52 -28 59 8 5 18 9 23 9 17 0 -36 48 -60
54 -14 4 -24 14 -24 25 0 24 -11 33 -25 21 -8 -7 -20 -2 -39 15 -30 28 -46 34
-26 10 7 -9 10 -18 7 -21 -8 -8 -47 19 -52 37 -3 9 -17 22 -30 29 -14 7 -23
15 -20 18 5 5 133 -46 154 -62 10 -8 9 -3 -3 15 -9 15 -30 32 -46 39 -17 7
-30 17 -30 22 0 6 -7 7 -16 4 -10 -4 -43 8 -80 29 -35 19 -64 31 -64 27 0 -4
-4 -2 -8 4 -11 17 -133 52 -187 55 -101 5 -105 1 -38 -30 l62 -30 -15 -30
c-11 -23 -12 -35 -5 -50 20 -36 13 -42 -26 -26 -21 9 -61 40 -90 69 -58 60
-105 83 -123 61 -11 -14 -3 -26 36 -53 11 -7 26 -17 34 -23 10 -7 11 -12 4
-15 -7 -3 -10 -14 -7 -24 6 -24 -7 -25 -59 -7 -35 12 -36 14 -17 26 17 10 18
15 9 27 -16 19 -40 18 -40 -2 0 -9 -9 -18 -20 -21 -19 -5 -20 -6 -3 -19 16
-13 14 -14 -18 -12 -27 1 -47 -6 -73 -26 -20 -15 -36 -30 -36 -34 1 -21 48
-52 80 -52 12 0 18 -4 15 -10 -7 -12 12 -50 25 -50 6 0 10 13 10 29 0 16 6 31
14 34 10 4 13 17 9 46 -4 32 -2 42 11 47 21 8 66 -14 66 -33 0 -17 27 -17 33
0 3 8 16 1 39 -20 19 -18 39 -33 44 -33 6 0 18 -8 28 -18 15 -18 15 -20 -1
-33 -32 -26 -62 -39 -76 -33 -8 3 -25 -4 -38 -16 l-24 -20 30 15 c28 14 30 14
33 -5 2 -13 11 -20 25 -20 18 0 19 -2 7 -10 -13 -8 -13 -10 2 -10 9 0 18 5 20
12 3 9 6 9 11 1 4 -6 -8 -20 -29 -32 -42 -25 -48 -26 -41 -7 4 11 -4 9 -29 -6
-19 -11 -34 -28 -34 -38 0 -10 -9 -21 -19 -25 -24 -7 -61 -68 -61 -100 0 -16
-11 -30 -34 -44 -41 -26 -62 -70 -47 -99 13 -25 15 -82 2 -82 -14 0 -31 25
-37 58 -6 28 -11 32 -51 38 -32 5 -48 3 -53 -6 -5 -8 -20 -10 -46 -6 -56 9
-94 -23 -110 -95 -7 -30 -10 -57 -8 -61 3 -5 76 -8 162 -7 94 0 149 4 137 9
-11 4 -30 6 -42 3 -13 -3 -23 -1 -23 5 0 6 14 13 31 17 29 7 46 2 101 -26 10
-5 79 -9 154 -9 112 0 135 -2 131 -14 -7 -18 41 -26 168 -26 55 0 107 -5 115
-10 14 -9 -355 -18 -503 -12 -36 1 -56 -2 -52 -8 3 -6 2 -10 -4 -10 -5 0 -13
5 -16 10 -3 6 -46 10 -95 10 -89 0 -90 0 -105 -30 -8 -16 -15 -31 -15 -35 0
-3 19 -5 43 -5 53 0 67 -13 60 -56 -4 -27 -2 -34 11 -34 11 0 16 -9 16 -32 l1
-33 29 33 c20 21 39 32 57 32 l27 0 -33 -34 -34 -35 32 -40 c38 -47 42 -49 40
-18 -1 12 -1 46 -1 75 2 44 5 52 21 52 18 0 20 -9 23 -88 3 -84 2 -87 -19 -89
-13 0 -23 3 -23 7 0 4 -12 6 -26 4 -20 -2 -30 5 -46 32 -24 42 -42 40 -46 -5
-3 -24 -7 -31 -19 -27 -8 3 -17 6 -19 6 -2 0 -4 23 -4 50 0 70 -46 133 -107
149 -23 6 -49 21 -57 33 -12 16 -24 22 -47 20 -22 -2 -51 9 -91 33 l-59 35
-172 0 c-101 0 -166 -4 -158 -9 10 -7 10 -10 1 -13 -12 -4 -20 -101 -9 -112 4
-4 307 -19 351 -18 10 1 18 -2 19 -6 0 -4 2 -20 4 -35 2 -18 -3 -35 -15 -47
-18 -18 -18 -19 1 -44 11 -14 18 -30 15 -35 -10 -16 -43 -1 -65 30 -26 34 -41
30 -41 -12 0 -17 -5 -29 -13 -29 -19 0 -36 20 -30 36 2 7 0 21 -6 31 -9 15
-11 13 -12 -17 -1 -19 -1 -37 -1 -40 1 -10 -136 -11 -143 -1 -12 20 -45 12
-45 -10 0 -11 -4 -17 -10 -14 -5 3 -10 -1 -10 -9 0 -9 3 -16 8 -17 60 -6 72
-24 20 -31 -15 -2 -31 -8 -35 -13 -4 -4 -2 -5 4 -1 9 5 13 0 13 -12 0 -16 7
-20 41 -20 65 -1 59 -12 -7 -14 l-59 -1 45 -6 45 -7 -44 -8 c-31 -6 -40 -11
-30 -17 12 -8 12 -10 0 -18 -7 -5 -10 -14 -6 -21 4 -6 -1 -17 -11 -25 -24 -17
-17 -24 37 -34 25 -4 43 -12 42 -19 -2 -7 9 -12 25 -13 16 0 -2 -8 -43 -18
-46 -12 -64 -20 -54 -25 10 -4 15 -18 14 -36 -2 -31 6 -51 21 -52 19 -1 34
-10 29 -18 -3 -5 5 -25 17 -46 12 -21 17 -34 10 -30 -7 4 -12 1 -12 -8 0 -19
35 -42 78 -51 19 -4 32 -13 32 -22 0 -16 23 -43 38 -43 5 0 20 -14 33 -31 13
-17 35 -37 49 -45 l25 -13 -23 -7 c-22 -6 -22 -7 10 -36 18 -16 50 -39 71 -51
20 -11 37 -24 37 -29 0 -7 -108 57 -120 71 -3 3 -23 18 -45 33 -49 33 -143
129 -182 184 -15 23 -42 61 -59 85 -54 76 -110 190 -139 286 -18 57 -32 88
-37 80 -4 -6 -5 3 -2 21 5 23 3 32 -7 33 -8 0 -89 1 -181 2 -102 1 -169 6
-170 12 -2 6 12 11 30 13 37 4 34 22 -5 22 -16 0 -27 7 -30 20 -3 11 -8 20
-12 21 -3 0 -19 2 -35 4 -21 3 -29 -1 -33 -16 -3 -10 -9 -19 -14 -19 -5 0 -6
7 -3 15 4 10 0 15 -14 15 -11 0 -22 -8 -25 -17 -3 -15 -6 -13 -17 10 -9 19
-19 26 -31 22 -12 -4 -22 1 -29 15 -8 15 -15 18 -28 12 -17 -9 -57 -8 -117 2
-56 9 -449 15 -507 7 -32 -4 -58 -3 -58 1 0 4 -30 8 -67 8 l-68 0 -3 50 -3 50
253 2 c139 1 261 2 270 1 10 0 18 4 18 9 0 4 -5 8 -11 8 -8 0 -8 4 0 13 8 10
7 17 -1 25 -15 15 -11 19 37 26 22 3 60 10 85 15 25 6 128 13 230 16 102 4
197 11 213 15 18 6 27 5 27 -2 0 -7 15 -9 40 -5 41 5 49 0 28 -21 -9 -9 -8
-12 5 -12 9 0 17 -8 17 -17 0 -13 3 -14 11 -6 9 9 18 8 36 -4 18 -12 27 -13
36 -4 13 13 31 15 23 2 -10 -15 25 -36 61 -36 31 -1 33 1 33 31 0 17 3 46 6
63 l6 31 -338 0 c-187 0 -344 4 -351 8 -6 4 -13 16 -15 27 -3 20 3 20 360 23
307 2 362 4 362 17 0 31 54 185 97 274 48 102 131 212 228 302 89 84 158 139
173 139 7 0 11 4 8 8 -7 12 182 109 268 138 76 26 115 32 81 12 -11 -7 -26
-13 -34 -14 -16 -3 -47 -31 -40 -38 2 -2 18 -6 34 -8 20 -2 29 1 27 10 -4 21
47 35 64 17 13 -13 12 -17 -6 -35 -11 -11 -16 -20 -11 -20 6 0 13 5 16 10 4 6
10 8 15 5 4 -2 10 6 12 20 3 14 1 22 -4 19 -6 -4 -8 2 -6 12 2 14 12 19 35 19
17 0 29 4 26 9 -4 5 4 7 15 4 12 -4 22 -2 22 3 0 5 6 9 14 9 8 0 17 7 20 16 6
15 19 16 109 10 56 -3 123 -8 149 -10 161 -15 335 -80 493 -185 81 -53 217
-179 209 -192 -3 -5 -2 -8 3 -7 12 4 85 -79 125 -142 59 -92 100 -180 133
-284 l32 -100 50 3 c30 1 54 -2 58 -9 5 -8 11 -7 22 2 19 16 16 16 36 -1 9 -7
15 -17 12 -21 -2 -4 7 -12 22 -19 14 -6 24 -14 21 -16 -2 -2 -49 -7 -103 -11
-55 -3 -101 -7 -101 -8 -1 0 1 -34 3 -74 l6 -74 34 7 c25 4 35 2 40 -10 3 -9
9 -12 12 -7 3 5 16 12 28 16 17 6 23 3 23 -8 0 -13 12 -16 54 -16 30 0 57 -4
61 -9 3 -6 18 -9 33 -8 20 2 28 8 30 25 2 12 10 22 19 22 8 0 13 -6 11 -12 -6
-17 22 -45 30 -31 4 5 14 13 22 16 11 4 10 6 -5 6 -12 1 -15 4 -10 10 6 5 23
7 40 4 26 -5 27 -7 10 -14 -17 -6 -15 -8 10 -10 51 -4 53 -4 61 -12 4 -4 20
-7 36 -7 15 0 28 -4 28 -10 0 -5 -12 -10 -26 -10 -21 0 -25 -4 -22 -22 3 -20
11 -24 56 -28 30 -3 56 -2 58 2 3 5 10 6 15 2 6 -3 100 -8 209 -11 l200 -4 0
52 c0 60 9 62 13 3 1 -21 6 -42 10 -45 9 -7 117 -2 154 6 17 4 22 14 25 43 2
29 7 36 21 34 10 -2 17 3 17 13 0 18 12 19 28 3 8 -8 15 -8 25 0 7 6 27 11 43
11 16 -1 110 0 210 1 159 1 219 8 204 24 -3 2 -70 6 -150 7 -167 3 -180 5
-179 28 0 10 2 11 6 4 7 -18 21 -16 26 5 4 16 5 16 6 0 1 -19 21 -26 21 -8 0
6 5 10 11 10 5 0 8 -4 5 -8 -3 -5 1 -9 9 -9 9 0 14 7 13 16 -3 14 14 16 115
19 l117 3 0 984 0 985 -3060 0 -3060 0 0 -1145z m2980 216 c0 -10 -69 -25 -77
-17 -3 3 10 9 28 15 45 12 49 13 49 2z m40 5 c0 -2 -7 -6 -15 -10 -8 -3 -15
-1 -15 4 0 6 7 10 15 10 8 0 15 -2 15 -4z m366 -100 c17 -13 17 -15 2 -21 -9
-4 -26 -1 -39 5 -17 10 -19 14 -8 21 19 12 22 11 45 -5z m-135 -256 c18 -16
30 -32 27 -35 -7 -8 -78 5 -78 14 0 11 12 51 16 51 1 0 17 -13 35 -30z m-2432
-303 c-19 -14 -102 -10 -93 4 3 5 29 9 57 9 44 -1 49 -3 36 -13z m-19 -77 c0
-5 -2 -10 -4 -10 -3 0 -8 5 -11 10 -3 6 -1 10 4 10 6 0 11 -4 11 -10z m2160
-131 c0 -6 -4 -7 -10 -4 -5 3 -10 11 -10 16 0 6 5 7 10 4 6 -3 10 -11 10 -16z
m933 -46 c-23 -9 -14 -25 11 -21 17 4 23 1 19 -9 -3 -7 -15 -13 -27 -13 -16 0
-22 7 -24 25 -1 18 3 25 16 24 10 0 12 -3 5 -6z m867 -18 c0 -27 -39 -52 -51
-33 -3 5 -9 9 -13 9 -3 -1 -6 1 -6 4 0 3 0 14 0 25 0 16 7 20 35 20 31 0 35
-3 35 -25z m-116 -30 c-4 -8 -8 -15 -10 -15 -2 0 -4 7 -4 15 0 8 4 15 10 15 5
0 7 -7 4 -15z m-1027 -21 c-3 -3 -12 -4 -19 -1 -8 3 -5 6 6 6 11 1 17 -2 13
-5z m-2807 -94 c0 -5 -2 -10 -4 -10 -3 0 -8 5 -11 10 -3 6 -1 10 4 10 6 0 11
-4 11 -10z m3775 -60 c3 -5 -3 -10 -15 -10 -12 0 -18 5 -15 10 3 6 10 10 15
10 5 0 12 -4 15 -10z m206 -3 c-1 -12 -15 -9 -19 4 -3 6 1 10 8 8 6 -3 11 -8
11 -12z m-2183 -7 c31 0 42 -4 42 -15 0 -11 -12 -15 -45 -15 -33 0 -45 -4 -45
-15 0 -11 11 -15 40 -15 33 0 40 -3 40 -20 0 -17 -7 -20 -40 -20 -29 0 -40 -4
-40 -15 0 -11 12 -15 45 -15 33 0 45 -4 45 -15 0 -11 -12 -15 -42 -16 -24 0
-51 -2 -61 -4 -10 -2 -20 2 -22 8 -7 21 -12 157 -6 163 3 3 15 3 26 0 11 -3
39 -6 63 -6z m179 -72 c15 -40 30 -76 31 -80 2 -5 -6 -8 -17 -8 -12 0 -24 7
-27 15 -4 9 -19 15 -35 15 -17 0 -32 -6 -35 -15 -5 -13 -44 -22 -44 -10 0 7
49 134 55 146 4 5 15 9 25 9 13 0 26 -19 47 -72z m-1422 -157 c-3 -6 -11 -8
-17 -5 -6 4 -5 9 3 15 16 10 23 4 14 -10z m55 9 c0 -5 -4 -10 -10 -10 -5 0
-10 5 -10 10 0 6 5 10 10 10 6 0 10 -4 10 -10z m58 -9 c3 -8 -1 -12 -9 -9 -7
2 -15 10 -17 17 -3 8 1 12 9 9 7 -2 15 -10 17 -17z m38 -8 c-10 -10 -19 5 -10
18 6 11 8 11 12 0 2 -7 1 -15 -2 -18z m1489 17 c5 -8 11 -8 20 0 8 7 14 7 17
1 4 -13 43 -15 218 -13 98 2 140 5 130 12 -11 7 3 10 48 10 39 0 62 -4 62 -11
0 -7 9 -9 21 -6 12 3 22 0 26 -9 4 -10 9 -11 17 -5 14 11 56 3 56 -10 0 -5 19
-9 43 -9 24 0 52 -7 63 -15 10 -8 26 -15 35 -15 9 0 20 -7 23 -16 12 -32 5
-63 -28 -118 -18 -31 -37 -75 -40 -99 -11 -72 -47 -129 -98 -157 -63 -35 -76
-47 -83 -79 -3 -16 -29 -53 -56 -85 -39 -44 -57 -56 -79 -56 -22 0 -28 -4 -24
-15 8 -20 -13 -45 -37 -45 -9 0 -24 -6 -31 -13 -7 -7 -21 -16 -31 -20 -10 -4
-16 -11 -12 -17 3 -5 -3 -18 -14 -29 -12 -12 -16 -23 -10 -27 6 -4 4 -13 -8
-26 -17 -19 -17 -20 2 -34 17 -13 16 -14 -16 -14 -19 1 -44 9 -56 19 -25 21
-31 57 -11 63 9 3 10 15 2 50 -6 25 -7 54 -3 65 4 11 11 77 15 147 7 123 6
127 -16 151 -13 13 -38 29 -57 36 -26 8 -44 28 -82 87 -27 43 -59 86 -70 98
-18 18 -20 30 -17 92 4 62 7 74 31 97 31 27 40 30 50 15z m-2225 -10 c0 -5
-22 -10 -50 -10 -27 0 -50 5 -50 10 0 6 23 10 50 10 28 0 50 -4 50 -10z m3850
-120 c-8 -5 -51 -10 -95 -10 -55 0 -75 3 -65 10 8 5 51 10 95 10 55 0 75 -3
65 -10z m-155 -100 c-4 -6 13 -10 42 -11 39 -1 43 -3 23 -9 -22 -7 -21 -8 12
-9 29 -1 36 -4 32 -16 -5 -12 -29 -15 -130 -15 -104 0 -124 2 -124 15 0 8 5
15 10 15 6 0 10 9 10 20 0 18 7 20 66 20 41 0 63 -4 59 -10z m-445 -45 c0 -7
-9 -15 -20 -18 -16 -4 -20 0 -20 18 0 18 4 22 20 18 11 -3 20 -11 20 -18z m1
-283 c-37 -48 -143 -147 -174 -164 -19 -10 -20 -9 -9 4 10 13 8 17 -20 23 -26
6 -29 9 -13 13 11 2 47 35 80 72 49 55 69 70 110 82 28 8 52 13 54 12 2 -2
-11 -21 -28 -42z m-256 -222 c-10 -16 -65 -42 -65 -30 0 5 6 10 14 10 7 0 19
7 26 15 14 17 35 21 25 5z m-80 -50 c-3 -5 -11 -10 -16 -10 -6 0 -7 5 -4 10 3
6 11 10 16 10 6 0 7 -4 4 -10z m-1060 -23 c60 -26 106 -50 102 -54 -2 -1 -22
6 -45 17 -22 11 -45 20 -49 20 -4 0 -21 9 -38 21 -32 22 -31 22 30 -4z m1019
3 c-15 -15 -114 -50 -114 -40 0 4 19 13 43 19 23 6 49 15 57 21 20 13 27 13
14 0z m-860 -69 c4 -5 -3 -7 -14 -4 -23 6 -26 13 -6 13 8 0 17 -4 20 -9z m61
-11 c3 -5 21 -10 40 -10 19 0 36 -4 39 -8 6 -11 -70 1 -104 16 -24 10 -24 11
-3 11 12 1 25 -3 28 -9z m571 -7 c-36 -11 -51 -12 -60 -3 -8 8 -7 10 4 6 8 -3
29 -2 45 3 17 5 37 9 45 9 8 0 -7 -7 -34 -15z m-386 -29 c0 -2 -18 -4 -40 -4
-22 0 -40 3 -40 8 0 4 18 6 40 4 22 -2 40 -6 40 -8z m285 5 c-53 -10 -87 -11
-81 -1 3 5 31 9 63 9 55 0 56 0 18 -8z m-110 -9 c4 -6 -24 -9 -77 -8 l-83 2
75 6 c41 4 76 7 77 8 1 1 5 -2 8 -8z"/>
<path d="M2726 2054 c-9 -22 -8 -24 9 -24 8 0 15 6 15 14 0 22 -17 28 -24 10z"/>
<path d="M3118 3263 c7 -3 16 -2 19 1 4 3 -2 6 -13 5 -11 0 -14 -3 -6 -6z"/>
<path d="M2946 3188 c-15 -22 -12 -43 5 -32 5 3 7 10 3 15 -3 5 0 16 6 24 7 8
10 15 7 15 -3 0 -13 -10 -21 -22z"/>
<path d="M2500 3069 c-19 -10 -39 -19 -45 -19 -13 0 -53 -32 -116 -93 -43 -42
-49 -50 -37 -64 11 -14 10 -15 -10 -9 -13 5 -22 3 -22 -3 0 -6 5 -11 11 -11 6
0 -3 -14 -20 -31 -17 -17 -31 -35 -31 -41 0 -6 -7 -8 -15 -4 -13 4 -14 2 -5
-14 9 -16 8 -18 -6 -13 -11 4 -15 2 -11 -4 4 -6 -5 -28 -19 -49 -15 -22 -22
-40 -16 -42 6 -2 9 -9 6 -17 -3 -8 -13 -11 -21 -8 -13 5 -13 2 -4 -15 6 -11
16 -23 23 -25 8 -3 6 -6 -4 -6 -13 -1 -18 -9 -18 -28 0 -34 -7 -44 -43 -63
-24 -12 -28 -19 -23 -42 3 -15 1 -30 -5 -34 -8 -4 -7 -9 2 -15 10 -6 11 -9 2
-9 -7 0 -13 -7 -13 -15 0 -8 5 -15 10 -15 6 0 10 -7 10 -15 0 -13 28 -15 195
-15 107 0 195 1 195 3 0 9 -58 148 -65 154 -7 7 -5 -10 11 -102 l5 -30 -19 24
c-11 14 -18 31 -15 38 3 7 1 19 -4 26 -10 12 -18 116 -17 217 1 58 18 98 74
175 16 22 29 48 30 58 0 10 7 25 15 33 17 17 21 39 5 29 -5 -3 -10 -1 -10 5 0
6 7 10 16 8 10 -2 18 4 19 14 2 10 13 29 24 44 37 48 22 57 -39 23z"/>
<path d="M3979 2877 c7 -9 18 -14 24 -10 6 4 8 0 4 -9 -7 -18 11 -38 33 -37
10 0 9 3 -5 8 -11 4 -20 17 -20 27 0 10 -4 19 -10 19 -5 0 -17 4 -25 10 -13 8
-13 7 -1 -8z"/>
<path d="M2390 2546 c0 -8 5 -18 10 -21 6 -3 10 3 10 14 0 12 -4 21 -10 21 -5
0 -10 -6 -10 -14z"/>
<path d="M2643 2283 c9 -2 25 -2 35 0 9 3 1 5 -18 5 -19 0 -27 -2 -17 -5z"/>
<path d="M1108 2213 c-24 -6 -20 -63 5 -63 14 0 17 7 15 35 -1 19 -2 34 -3 34
0 -1 -8 -3 -17 -6z"/>
<path d="M4220 2200 c0 -4 9 -10 20 -13 11 -3 20 -2 20 3 0 4 -9 10 -20 13
-11 3 -20 2 -20 -3z"/>
<path d="M1818 2173 c7 -3 16 -2 19 1 4 3 -2 6 -13 5 -11 0 -14 -3 -6 -6z"/>
<path d="M4180 2170 c-8 -5 -12 -11 -9 -14 2 -3 11 -1 19 4 8 5 12 11 9 14 -2
3 -11 1 -19 -4z"/>
<path d="M3738 2108 c-3 -8 -19 -11 -46 -9 -33 2 -42 -1 -42 -13 0 -12 10 -16
40 -16 29 0 40 -4 40 -15 0 -8 7 -15 15 -15 13 0 15 7 9 38 -8 43 -10 48 -16
30z"/>
<path d="M3881 2104 c0 -11 3 -14 6 -6 3 7 2 16 -1 19 -3 4 -6 -2 -5 -13z"/>
<path d="M4023 2085 c0 -8 4 -15 9 -15 4 0 8 7 8 15 0 8 -4 15 -8 15 -5 0 -9
-7 -9 -15z"/>
<path d="M2425 2080 c-3 -5 1 -10 9 -10 9 0 16 5 16 10 0 6 -4 10 -9 10 -6 0
-13 -4 -16 -10z"/>
<path d="M4068 2068 c12 -6 22 -15 22 -20 0 -4 15 -8 33 -7 17 0 26 3 20 6 -7
2 -13 11 -13 19 0 8 -5 14 -11 14 -6 0 -9 -7 -5 -15 3 -8 1 -15 -4 -15 -6 0
-10 6 -10 13 0 7 -12 13 -27 14 -27 2 -27 1 -5 -9z"/>
<path d="M4339 2075 c0 0 -2 -8 -4 -17 -2 -12 3 -18 16 -18 10 0 19 5 19 10 0
14 37 12 44 -2 5 -10 7 -10 12 -1 10 21 1 27 -43 28 -24 0 -43 0 -44 0z"/>
<path d="M4465 2070 c-17 -7 -17 -9 -2 -9 9 -1 17 -5 17 -11 0 -15 107 -13
114 3 5 10 7 10 12 0 8 -19 20 -16 21 6 1 16 -6 19 -70 19 -40 0 -81 -3 -92
-8z"/>
<path d="M4704 2066 c-8 -20 -1 -29 20 -24 13 3 13 6 1 22 -13 17 -15 18 -21
2z"/>
<path d="M4762 2058 c4 -25 28 -37 28 -14 0 9 5 16 11 16 5 0 7 5 4 10 -3 6
-15 10 -26 10 -15 0 -20 -6 -17 -22z"/>
<path d="M3845 2050 c-3 -5 -1 -10 4 -10 6 0 11 5 11 10 0 6 -2 10 -4 10 -3 0
-8 -4 -11 -10z"/>
<path d="M2255 2010 c3 -5 8 -10 11 -10 2 0 4 5 4 10 0 6 -5 10 -11 10 -5 0
-7 -4 -4 -10z"/>
<path d="M2280 2009 c0 -5 5 -7 10 -4 6 3 10 8 10 11 0 2 -4 4 -10 4 -5 0 -10
-5 -10 -11z"/>
<path d="M3581 1974 c0 -11 3 -14 6 -6 3 7 2 16 -1 19 -3 4 -6 -2 -5 -13z"/>
<path d="M1887 1967 c-8 -20 -47 -29 -47 -11 0 19 -74 19 -90 -1 -10 -11 -9
-18 4 -30 13 -14 33 -16 109 -13 79 4 92 7 95 22 2 10 -1 23 -7 29 -8 8 -11 6
-11 -6 0 -9 -5 -17 -11 -17 -6 0 -8 7 -5 17 4 10 4 14 0 10 -4 -4 -13 -2 -19
3 -9 7 -14 6 -18 -3z"/>
<path d="M4578 1973 c6 -2 18 -2 25 0 6 3 1 5 -13 5 -14 0 -19 -2 -12 -5z"/>
<path d="M5015 1940 c-28 -7 -28 -8 -5 -9 14 0 32 4 40 9 17 11 8 11 -35 0z"/>
<path d="M5418 1943 c12 -2 30 -2 40 0 9 3 -1 5 -23 4 -22 0 -30 -2 -17 -4z"/>
</g>
</svg>
